<svg width="800" height="540" viewBox="0 0 800 540" fill="none" xmlns="http://www.w3.org/2000/svg">
  <rect width="800" height="540" rx="32" fill="#F5F7FB"/>
  <rect x="32" y="32" width="736" height="476" rx="28" fill="#FFFFFF" stroke="#D8E0EA"/>
  <rect x="64" y="64" width="672" height="72" rx="24" fill="#E9F5FF"/>
  <rect x="64" y="160" width="296" height="280" rx="24" fill="#F3F7FC"/>
  <rect x="384" y="160" width="352" height="132" rx="24" fill="#F8FBFF" stroke="#E2E8F0"/>
  <rect x="384" y="308" width="352" height="132" rx="24" fill="#F8FBFF" stroke="#E2E8F0"/>
  <rect x="90" y="92" width="170" height="14" rx="7" fill="#0EA5E9"/>
  <rect x="90" y="198" width="184" height="14" rx="7" fill="#1E293B"/>
  <rect x="90" y="228" width="220" height="12" rx="6" fill="#94A3B8"/>
  <circle cx="196" cy="320" r="70" fill="#DFF4FF"/>
  <path d="M196 272C182 292 182 314 196 334C210 354 210 376 196 394" stroke="#34D399" stroke-width="14" stroke-linecap="round"/>
  <rect x="420" y="198" width="200" height="14" rx="7" fill="#0F172A"/>
  <rect x="420" y="228" width="150" height="12" rx="6" fill="#94A3B8"/>
  <rect x="420" y="346" width="220" height="14" rx="7" fill="#0EA5E9"/>
  <text x="64" y="486" fill="#0F172A" font-family="Sora, sans-serif" font-size="28" font-weight="600">Chiropractic Screenshot Placeholder</text>
</svg>
