<svg width="800" height="540" viewBox="0 0 800 540" fill="none" xmlns="http://www.w3.org/2000/svg">
  <rect width="800" height="540" rx="32" fill="#0B1220"/>
  <rect x="44" y="44" width="712" height="452" rx="28" fill="#101A2D" stroke="#22304D"/>
  <rect x="92" y="84" width="276" height="372" rx="28" fill="#EEF2FF"/>
  <rect x="400" y="84" width="308" height="372" rx="28" fill="#14213A"/>
  <rect x="126" y="132" width="140" height="16" rx="8" fill="#0F172A"/>
  <rect x="126" y="180" width="208" height="46" rx="14" fill="#FFFFFF" stroke="#CBD5E1"/>
  <rect x="126" y="244" width="208" height="46" rx="14" fill="#FFFFFF" stroke="#CBD5E1"/>
  <rect x="126" y="324" width="208" height="52" rx="16" fill="#0EA5E9"/>
  <rect x="436" y="132" width="160" height="16" rx="8" fill="#67E8F9"/>
  <rect x="436" y="182" width="220" height="12" rx="6" fill="#475569"/>
  <rect x="436" y="212" width="200" height="12" rx="6" fill="#475569"/>
  <circle cx="572" cy="320" r="72" fill="#0EA5E9" fill-opacity="0.18"/>
  <path d="M540 320L562 342L608 296" stroke="#34D399" stroke-width="16" stroke-linecap="round" stroke-linejoin="round"/>
  <text x="92" y="486" fill="#E2E8F0" font-family="Sora, sans-serif" font-size="28" font-weight="600">Login / Signup UI Placeholder</text>
</svg>
