<svg width="800" height="540" viewBox="0 0 800 540" fill="none" xmlns="http://www.w3.org/2000/svg">
  <rect width="800" height="540" rx="32" fill="#08111A"/>
  <rect x="34" y="34" width="732" height="472" rx="24" fill="#0F172A" stroke="#1F2937"/>
  <rect x="64" y="70" width="224" height="18" rx="9" fill="#34D399"/>
  <rect x="64" y="104" width="286" height="12" rx="6" fill="#334155"/>
  <rect x="64" y="152" width="182" height="292" rx="20" fill="#101A2F"/>
  <rect x="266" y="152" width="226" height="292" rx="20" fill="#0D2531"/>
  <rect x="512" y="152" width="224" height="136" rx="20" fill="#101A2F"/>
  <rect x="512" y="308" width="224" height="136" rx="20" fill="#101A2F"/>
  <circle cx="154" cy="220" r="48" fill="#0EA5E9" fill-opacity="0.3"/>
  <circle cx="154" cy="220" r="28" fill="#38BDF8"/>
  <rect x="300" y="192" width="156" height="16" rx="8" fill="#6EE7B7"/>
  <rect x="300" y="224" width="128" height="12" rx="6" fill="#475569"/>
  <rect x="300" y="254" width="140" height="12" rx="6" fill="#475569"/>
  <path d="M556 222H690" stroke="#34D399" stroke-width="14" stroke-linecap="round"/>
  <path d="M556 378H668" stroke="#38BDF8" stroke-width="14" stroke-linecap="round"/>
  <text x="64" y="478" fill="#E2E8F0" font-family="Sora, sans-serif" font-size="28" font-weight="600">Project 2 Preview</text>
</svg>
